<mxfile host="app.diagrams.net" modified="2024-03-15T04:48:24.552Z" agent="Mozilla/5.0 (Windows NT 10.0; Win64; x64) AppleWebKit/537.36 (KHTML, like Gecko) Chrome/122.0.0.0 Safari/537.36" etag="T4zUqj75Sb_BOFAuzgsY" version="24.0.5" type="github">
  <diagram name="Page-1" id="c7558073-3199-34d8-9f00-42111426c3f3">
    <mxGraphModel dx="2423" dy="414" grid="1" gridSize="10" guides="1" tooltips="1" connect="1" arrows="1" fold="1" page="1" pageScale="1" pageWidth="826" pageHeight="1169" background="none" math="0" shadow="0">
      <root>
        <mxCell id="0" />
        <mxCell id="1" parent="0" />
        <mxCell id="_6mjk4-27FrQg_kHxcmd-76" value="" style="edgeStyle=orthogonalEdgeStyle;rounded=0;orthogonalLoop=1;jettySize=auto;html=1;" edge="1" parent="1" source="2" target="_6mjk4-27FrQg_kHxcmd-74">
          <mxGeometry relative="1" as="geometry" />
        </mxCell>
        <mxCell id="2" value="&lt;p style=&quot;margin: 0px; margin-top: 4px; text-align: center; text-decoration: underline;&quot;&gt;&lt;strong&gt;Preset &#39;1&#39;&lt;br&gt;&lt;/strong&gt;&lt;/p&gt;&lt;hr&gt;&lt;p style=&quot;margin: 0px; margin-left: 8px;&quot;&gt;p1 - ..pn&lt;br&gt;dalam Second&lt;/p&gt;" style="verticalAlign=middle;align=center;overflow=fill;fontSize=12;fontFamily=Helvetica;html=1;rounded=1;fontStyle=1;strokeWidth=3;" parent="1" vertex="1">
          <mxGeometry x="314.5" y="171" width="110" height="90" as="geometry" />
        </mxCell>
        <mxCell id="5" value="|Software Ver.0.0.|&#xa;|Formula &quot;n&quot;        |" style="shape=process;whiteSpace=wrap;align=center;verticalAlign=middle;size=0.0475;fontStyle=1;strokeWidth=3;fillColor=#d5e8d4;strokeColor=#82b366;" parent="1" vertex="1">
          <mxGeometry x="240" y="380" width="300" height="81" as="geometry" />
        </mxCell>
        <mxCell id="55" value="Select" style="edgeStyle=elbowEdgeStyle;elbow=horizontal;strokeColor=#990000;strokeWidth=2;entryX=0.5;entryY=1;entryDx=0;entryDy=0;" parent="1" target="_6mjk4-27FrQg_kHxcmd-77" edge="1" source="5">
          <mxGeometry x="0.0084" y="6" width="100" height="100" relative="1" as="geometry">
            <mxPoint x="336.25" y="380" as="sourcePoint" />
            <mxPoint x="390.75" y="216" as="targetPoint" />
            <Array as="points">
              <mxPoint x="302" y="360" />
            </Array>
            <mxPoint as="offset" />
          </mxGeometry>
        </mxCell>
        <mxCell id="56" value="Select" style="edgeStyle=elbowEdgeStyle;elbow=horizontal;strokeColor=#990000;strokeWidth=2;exitX=0.985;exitY=0.848;exitDx=0;exitDy=0;exitPerimeter=0;" parent="1" source="2" edge="1" target="_6mjk4-27FrQg_kHxcmd-78">
          <mxGeometry x="-0.3709" y="-7" width="100" height="100" relative="1" as="geometry">
            <mxPoint x="450" y="250" as="sourcePoint" />
            <mxPoint x="389.9999999999998" y="300" as="targetPoint" />
            <Array as="points">
              <mxPoint x="470" y="260" />
            </Array>
            <mxPoint as="offset" />
          </mxGeometry>
        </mxCell>
        <mxCell id="57" value="Timming Setting" style="text;spacingTop=-5;align=center" parent="1" vertex="1">
          <mxGeometry x="241" y="261" width="30" height="20" as="geometry" />
        </mxCell>
        <mxCell id="NX90EAhNhadWSshN6RtQ-158" value="Menambah/&#xa;mengurangi&#xa;Timing Pump" style="whiteSpace=wrap;align=center;verticalAlign=middle;fontStyle=1;strokeWidth=3;fillColor=#FFFFCC" parent="1" vertex="1">
          <mxGeometry x="319.5" y="59.999999999999886" width="90" height="60" as="geometry" />
        </mxCell>
        <mxCell id="NX90EAhNhadWSshN6RtQ-160" value="Up/Down" style="edgeStyle=elbowEdgeStyle;elbow=vertical;strokeColor=#990000;strokeWidth=2;" parent="1" edge="1">
          <mxGeometry x="-0.1765" y="10" width="100" height="100" relative="1" as="geometry">
            <mxPoint x="358.62999999999977" y="171" as="sourcePoint" />
            <mxPoint x="358.62999999999977" y="119.99999999999989" as="targetPoint" />
            <Array as="points" />
            <mxPoint as="offset" />
          </mxGeometry>
        </mxCell>
        <mxCell id="NX90EAhNhadWSshN6RtQ-161" value="Return" style="edgeStyle=elbowEdgeStyle;elbow=horizontal;strokeColor=#990000;strokeWidth=2;entryX=0.5;entryY=0;entryDx=0;entryDy=0;" parent="1" edge="1">
          <mxGeometry x="-0.2102" y="14" width="100" height="100" relative="1" as="geometry">
            <mxPoint x="374.19217391304375" y="119.99999999999989" as="sourcePoint" />
            <mxPoint x="374.5399999999998" y="171" as="targetPoint" />
            <Array as="points" />
            <mxPoint as="offset" />
          </mxGeometry>
        </mxCell>
        <mxCell id="NX90EAhNhadWSshN6RtQ-163" value="Menuju Ke Pompa Sesudah/Sebelumnya" style="whiteSpace=wrap;align=center;verticalAlign=middle;fontStyle=1;strokeWidth=3;fillColor=#FFFFCC" parent="1" vertex="1">
          <mxGeometry x="90" y="186" width="130" height="60" as="geometry" />
        </mxCell>
        <mxCell id="NX90EAhNhadWSshN6RtQ-165" value="Right/Left" style="edgeStyle=elbowEdgeStyle;elbow=vertical;strokeColor=#990000;strokeWidth=2;exitX=0;exitY=0.5;exitDx=0;exitDy=0;" parent="1" source="2" target="NX90EAhNhadWSshN6RtQ-163" edge="1">
          <mxGeometry width="100" height="100" relative="1" as="geometry">
            <mxPoint x="368.62999999999977" y="181" as="sourcePoint" />
            <mxPoint x="368.62999999999977" y="129.9999999999999" as="targetPoint" />
            <Array as="points" />
          </mxGeometry>
        </mxCell>
        <mxCell id="NX90EAhNhadWSshN6RtQ-166" value="Return" style="edgeStyle=elbowEdgeStyle;elbow=vertical;strokeColor=#990000;strokeWidth=2;exitX=1;exitY=0.25;exitDx=0;exitDy=0;" parent="1" source="NX90EAhNhadWSshN6RtQ-163" target="2" edge="1">
          <mxGeometry width="100" height="100" relative="1" as="geometry">
            <mxPoint x="252" y="200.2999999999999" as="sourcePoint" />
            <mxPoint x="316.9999999999998" y="200.3" as="targetPoint" />
            <Array as="points" />
          </mxGeometry>
        </mxCell>
        <mxCell id="NX90EAhNhadWSshN6RtQ-175" value="Next/Previous&#xa;Preset" style="whiteSpace=wrap;align=center;verticalAlign=middle;fontStyle=1;strokeWidth=3;fillColor=#FFFFCC" parent="1" vertex="1">
          <mxGeometry x="61" y="385.9999999999999" width="90" height="60" as="geometry" />
        </mxCell>
        <mxCell id="NX90EAhNhadWSshN6RtQ-176" value="Right/Left" style="edgeStyle=elbowEdgeStyle;elbow=vertical;strokeColor=#990000;strokeWidth=2;entryX=0.995;entryY=0.632;entryDx=0;entryDy=0;entryPerimeter=0;exitX=-0.001;exitY=0.539;exitDx=0;exitDy=0;exitPerimeter=0;" parent="1" source="5" target="NX90EAhNhadWSshN6RtQ-175" edge="1">
          <mxGeometry width="100" height="100" relative="1" as="geometry">
            <mxPoint x="230" y="424" as="sourcePoint" />
            <mxPoint x="213" y="423.3" as="targetPoint" />
            <Array as="points" />
          </mxGeometry>
        </mxCell>
        <mxCell id="NX90EAhNhadWSshN6RtQ-177" value="Return" style="edgeStyle=elbowEdgeStyle;elbow=vertical;strokeColor=#990000;strokeWidth=2;exitX=1.018;exitY=0.369;exitDx=0;exitDy=0;exitPerimeter=0;entryX=-0.007;entryY=0.358;entryDx=0;entryDy=0;entryPerimeter=0;" parent="1" source="NX90EAhNhadWSshN6RtQ-175" target="5" edge="1">
          <mxGeometry width="100" height="100" relative="1" as="geometry">
            <mxPoint x="213" y="408.3" as="sourcePoint" />
            <mxPoint x="230" y="410" as="targetPoint" />
            <Array as="points" />
          </mxGeometry>
        </mxCell>
        <mxCell id="NX90EAhNhadWSshN6RtQ-178" value="" style="edgeStyle=elbowEdgeStyle;elbow=horizontal;strokeColor=#990000;strokeWidth=2;" parent="1" edge="1">
          <mxGeometry x="-0.0526" y="29" width="100" height="100" relative="1" as="geometry">
            <mxPoint x="475.6628571428571" y="356.37" as="sourcePoint" />
            <mxPoint x="475.52" y="380" as="targetPoint" />
            <Array as="points" />
            <mxPoint as="offset" />
          </mxGeometry>
        </mxCell>
        <mxCell id="_6mjk4-27FrQg_kHxcmd-74" value="Formula: &#39;n&#39;&#xa;&#39;Pn&#39;    &#39;t&#39; Second" style="shape=process;whiteSpace=wrap;align=center;verticalAlign=middle;size=0.0475;fontStyle=1;strokeWidth=3;fillColor=#d5e8d4;strokeColor=#82b366;" vertex="1" parent="1">
          <mxGeometry x="446" y="197.75" width="144" height="36.5" as="geometry" />
        </mxCell>
        <mxCell id="_6mjk4-27FrQg_kHxcmd-77" value="Penutupan Akses Modbus," style="rounded=0;whiteSpace=wrap;html=1;" vertex="1" parent="1">
          <mxGeometry x="263.5" y="289.12" width="76" height="40" as="geometry" />
        </mxCell>
        <mxCell id="_6mjk4-27FrQg_kHxcmd-78" value="Menyimpan nilai&lt;br&gt;Prst&#39;n&#39;[]:{};&lt;br&gt;ke EEPROM 1-&#39;n&#39;.&lt;br&gt;Pembukaan Akses Modbus, dan memberi tanda&lt;br&gt;Formula &#39;x&#39;/&#39;n&#39; ke Remote" style="rounded=0;whiteSpace=wrap;html=1;" vertex="1" parent="1">
          <mxGeometry x="405" y="270" width="183.5" height="86.37" as="geometry" />
        </mxCell>
        <mxCell id="_6mjk4-27FrQg_kHxcmd-81" value="" style="edgeStyle=elbowEdgeStyle;elbow=horizontal;strokeColor=#990000;strokeWidth=2;entryX=0;entryY=0.75;entryDx=0;entryDy=0;" edge="1" parent="1" source="_6mjk4-27FrQg_kHxcmd-77" target="2">
          <mxGeometry x="0.0084" y="6" width="100" height="100" relative="1" as="geometry">
            <mxPoint x="312" y="390" as="sourcePoint" />
            <mxPoint x="312" y="339" as="targetPoint" />
            <Array as="points">
              <mxPoint x="300" y="270" />
            </Array>
            <mxPoint as="offset" />
          </mxGeometry>
        </mxCell>
        <mxCell id="_6mjk4-27FrQg_kHxcmd-82" value="Laundry Pump Program" style="swimlane;fontStyle=0;childLayout=stackLayout;horizontal=1;startSize=30;horizontalStack=0;resizeParent=1;resizeParentMax=0;resizeLast=0;collapsible=1;marginBottom=0;whiteSpace=wrap;html=1;" vertex="1" parent="1">
          <mxGeometry x="-153" width="140" height="120" as="geometry" />
        </mxCell>
        <mxCell id="_6mjk4-27FrQg_kHxcmd-83" value="Input ada 8&amp;nbsp;" style="text;strokeColor=none;fillColor=none;align=left;verticalAlign=middle;spacingLeft=4;spacingRight=4;overflow=hidden;points=[[0,0.5],[1,0.5]];portConstraint=eastwest;rotatable=0;whiteSpace=wrap;html=1;" vertex="1" parent="_6mjk4-27FrQg_kHxcmd-82">
          <mxGeometry y="30" width="140" height="30" as="geometry" />
        </mxCell>
        <mxCell id="_6mjk4-27FrQg_kHxcmd-84" value="proses" style="text;strokeColor=none;fillColor=none;align=left;verticalAlign=middle;spacingLeft=4;spacingRight=4;overflow=hidden;points=[[0,0.5],[1,0.5]];portConstraint=eastwest;rotatable=0;whiteSpace=wrap;html=1;" vertex="1" parent="_6mjk4-27FrQg_kHxcmd-82">
          <mxGeometry y="60" width="140" height="30" as="geometry" />
        </mxCell>
        <mxCell id="_6mjk4-27FrQg_kHxcmd-85" value="output 8 pompa" style="text;strokeColor=none;fillColor=none;align=left;verticalAlign=middle;spacingLeft=4;spacingRight=4;overflow=hidden;points=[[0,0.5],[1,0.5]];portConstraint=eastwest;rotatable=0;whiteSpace=wrap;html=1;" vertex="1" parent="_6mjk4-27FrQg_kHxcmd-82">
          <mxGeometry y="90" width="140" height="30" as="geometry" />
        </mxCell>
        <mxCell id="_6mjk4-27FrQg_kHxcmd-86" value="Master" style="shape=process;whiteSpace=wrap;html=1;backgroundOutline=1;" vertex="1" parent="1">
          <mxGeometry x="-550" y="240" width="70" height="20" as="geometry" />
        </mxCell>
        <mxCell id="_6mjk4-27FrQg_kHxcmd-87" value="Remote" style="shape=process;whiteSpace=wrap;html=1;backgroundOutline=1;" vertex="1" parent="1">
          <mxGeometry x="-720" y="240" width="70" height="20" as="geometry" />
        </mxCell>
        <mxCell id="_6mjk4-27FrQg_kHxcmd-88" value="Slave berfungsi" style="swimlane;whiteSpace=wrap;html=1;" vertex="1" parent="1">
          <mxGeometry x="-830" y="10" width="200" height="200" as="geometry">
            <mxRectangle x="10" y="10" width="120" height="30" as="alternateBounds" />
          </mxGeometry>
        </mxCell>
        <mxCell id="_6mjk4-27FrQg_kHxcmd-89" value="Fungsi Utama mengganti Preset" style="text;html=1;align=center;verticalAlign=middle;resizable=0;points=[];autosize=1;strokeColor=none;fillColor=none;" vertex="1" parent="_6mjk4-27FrQg_kHxcmd-88">
          <mxGeometry y="30" width="200" height="30" as="geometry" />
        </mxCell>
        <mxCell id="_6mjk4-27FrQg_kHxcmd-90" value="Menampilkan Preset Sekarang" style="text;html=1;align=center;verticalAlign=middle;resizable=0;points=[];autosize=1;strokeColor=none;fillColor=none;" vertex="1" parent="_6mjk4-27FrQg_kHxcmd-88">
          <mxGeometry y="68" width="190" height="30" as="geometry" />
        </mxCell>
        <mxCell id="_6mjk4-27FrQg_kHxcmd-91" value="FlowChart Secara UMUM" style="rounded=1;whiteSpace=wrap;html=1;arcSize=32;rotation=0;" vertex="1" parent="1">
          <mxGeometry x="-556.3399999999999" y="6.269999999999982" width="210" height="30" as="geometry" />
        </mxCell>
        <mxCell id="_6mjk4-27FrQg_kHxcmd-92" value="Menampilkan&lt;br&gt;&quot;X&quot;&lt;br&gt;Preset Sekarang" style="shape=parallelogram;perimeter=parallelogramPerimeter;whiteSpace=wrap;html=1;fixedSize=1;" vertex="1" parent="1">
          <mxGeometry x="-750" y="320" width="120" height="60" as="geometry" />
        </mxCell>
        <mxCell id="_6mjk4-27FrQg_kHxcmd-93" value="Membaca input Tombol" style="shape=parallelogram;perimeter=parallelogramPerimeter;whiteSpace=wrap;html=1;fixedSize=1;" vertex="1" parent="1">
          <mxGeometry x="-740" y="380" width="110" height="30" as="geometry" />
        </mxCell>
        <mxCell id="_6mjk4-27FrQg_kHxcmd-94" value="Membaca Preset dari Main uC" style="rounded=0;whiteSpace=wrap;html=1;" vertex="1" parent="1">
          <mxGeometry x="-750" y="260" width="120" height="60" as="geometry" />
        </mxCell>
        <mxCell id="_6mjk4-27FrQg_kHxcmd-95" value="Menyimpan dan mengatur Preset" style="rounded=0;whiteSpace=wrap;html=1;" vertex="1" parent="1">
          <mxGeometry x="-572.5" y="260" width="115" height="50" as="geometry" />
        </mxCell>
        <mxCell id="_6mjk4-27FrQg_kHxcmd-96" value="PROSES" style="swimlane;whiteSpace=wrap;html=1;" vertex="1" parent="1">
          <mxGeometry x="-350" y="185" width="330" height="520" as="geometry">
            <mxRectangle x="10" y="10" width="120" height="30" as="alternateBounds" />
          </mxGeometry>
        </mxCell>
        <mxCell id="_6mjk4-27FrQg_kHxcmd-97" value="&lt;div style=&quot;text-align: justify;&quot;&gt;&lt;span style=&quot;background-color: initial;&quot;&gt;Proses Running pump berdasarkan&amp;nbsp;&lt;/span&gt;&lt;/div&gt;&lt;div style=&quot;text-align: justify;&quot;&gt;trigger dari sensor ac atau dc input.&amp;nbsp;&lt;/div&gt;&lt;div style=&quot;text-align: justify;&quot;&gt;&lt;br&gt;&lt;/div&gt;&lt;div style=&quot;text-align: justify;&quot;&gt;Proses running pump&amp;nbsp;&lt;/div&gt;&lt;div style=&quot;text-align: justify;&quot;&gt;setelah remote di pilih preset oleh user&amp;nbsp;&lt;/div&gt;&lt;div style=&quot;text-align: justify;&quot;&gt;&lt;span style=&quot;background-color: initial;&quot;&gt;berdasarkan formula 1-8&amp;nbsp;&lt;/span&gt;&lt;/div&gt;&lt;div style=&quot;text-align: justify;&quot;&gt;&lt;span style=&quot;background-color: initial;&quot;&gt;dan otomatis&amp;nbsp; pump 1-8 menyala&amp;nbsp;&lt;/span&gt;&lt;/div&gt;&lt;div style=&quot;text-align: justify;&quot;&gt;&lt;span style=&quot;background-color: initial;&quot;&gt;berdasarkan trigger sensor input&amp;nbsp;&amp;nbsp;&lt;/span&gt;&lt;/div&gt;&lt;div style=&quot;text-align: justify;&quot;&gt;&lt;span style=&quot;background-color: initial;&quot;&gt;&lt;br&gt;&lt;/span&gt;&lt;/div&gt;&lt;div style=&quot;text-align: justify;&quot;&gt;&lt;span style=&quot;background-color: initial;&quot;&gt;1 formula berisi 8 preset timer untuk pump&lt;/span&gt;&lt;/div&gt;&lt;div style=&quot;text-align: justify;&quot;&gt;&lt;span style=&quot;background-color: initial;&quot;&gt;&lt;br&gt;&lt;/span&gt;&lt;/div&gt;&lt;div style=&quot;text-align: justify;&quot;&gt;&lt;span style=&quot;background-color: initial;&quot;&gt;setting formula time untuk pompa&amp;nbsp;&lt;/span&gt;&lt;/div&gt;&lt;div style=&quot;text-align: justify;&quot;&gt;&lt;span style=&quot;background-color: initial;&quot;&gt;&amp;nbsp;bisa up dan down&amp;nbsp;&lt;/span&gt;&lt;/div&gt;&lt;div style=&quot;text-align: justify;&quot;&gt;&lt;span style=&quot;background-color: initial;&quot;&gt;dalam satuan detik, menit, jam&lt;/span&gt;&lt;/div&gt;&lt;div style=&quot;text-align: justify;&quot;&gt;&lt;br&gt;&lt;/div&gt;&lt;div style=&quot;text-align: justify;&quot;&gt;&lt;b&gt;fitur tambahan&lt;/b&gt;&amp;nbsp;&lt;/div&gt;&lt;div style=&quot;text-align: justify;&quot;&gt;&lt;span style=&quot;background-color: initial;&quot;&gt;dan formula di master&amp;nbsp;&lt;/span&gt;&lt;/div&gt;&lt;div style=&quot;text-align: justify;&quot;&gt;&lt;span style=&quot;background-color: initial;&quot;&gt;&amp;nbsp;bisa di beri inisial name dan setting time&amp;nbsp;&lt;/span&gt;&lt;/div&gt;&lt;div style=&quot;text-align: justify;&quot;&gt;&lt;span style=&quot;background-color: initial;&quot;&gt;di mini web esp local / button saja/&amp;nbsp;&lt;/span&gt;&lt;/div&gt;&lt;div style=&quot;text-align: justify;&quot;&gt;&lt;span style=&quot;background-color: initial;&quot;&gt;setting lewat modbus tcp/ modbus rtu&amp;nbsp; &amp;nbsp;:&lt;/span&gt;&lt;/div&gt;&lt;div style=&quot;text-align: justify;&quot;&gt;&lt;span style=&quot;background-color: initial;&quot;&gt;Formula 1 = korden,&lt;/span&gt;&lt;/div&gt;&lt;div style=&quot;text-align: justify;&quot;&gt;&lt;span style=&quot;background-color: initial;&quot;&gt;Formula 2 =&amp;nbsp; selimut&amp;nbsp; &amp;nbsp;&lt;/span&gt;&lt;/div&gt;&lt;div style=&quot;text-align: justify;&quot;&gt;&lt;span style=&quot;background-color: initial;&quot;&gt;dst .&amp;nbsp;&lt;/span&gt;&lt;/div&gt;&lt;div style=&quot;text-align: justify;&quot;&gt;&lt;span style=&quot;background-color: initial;&quot;&gt;&lt;br&gt;&lt;/span&gt;&lt;/div&gt;&lt;div style=&quot;text-align: justify;&quot;&gt;&lt;b&gt;alasan fitur tambahan :&amp;nbsp;&lt;/b&gt;&lt;/div&gt;&lt;div style=&quot;text-align: justify;&quot;&gt;&lt;b&gt;1. Teknisi melakukan print formula sesuai&amp;nbsp;&lt;/b&gt;&lt;/div&gt;&lt;div style=&quot;text-align: justify;&quot;&gt;&lt;b&gt;&amp;nbsp; &amp;nbsp; dengan kegunaannya di mesin cuci&amp;nbsp;&lt;/b&gt;&lt;/div&gt;&lt;div style=&quot;text-align: justify;&quot;&gt;&lt;b&gt;2. Teknisi tetep melakukan setting time di site&lt;/b&gt;&lt;/div&gt;&lt;div style=&quot;text-align: justify;&quot;&gt;&lt;b&gt;&amp;nbsp; &amp;nbsp; &amp;nbsp;karena panjang selang untuk pump berbeda beda&amp;nbsp;&lt;/b&gt;&lt;/div&gt;&lt;div style=&quot;text-align: justify;&quot;&gt;&lt;b&gt;3.&amp;nbsp; Mempercepat proses setting time terhadap output&amp;nbsp;&lt;/b&gt;&lt;/div&gt;&lt;div style=&quot;text-align: justify;&quot;&gt;&lt;b style=&quot;background-color: initial;&quot;&gt;&amp;nbsp; &amp;nbsp; ditergen / cairan dalam satuan mili liter&amp;nbsp;&lt;/b&gt;&lt;/div&gt;&lt;div style=&quot;text-align: justify;&quot;&gt;&lt;b style=&quot;background-color: initial;&quot;&gt;&amp;nbsp;&lt;/b&gt;&lt;br&gt;&lt;/div&gt;&lt;div style=&quot;text-align: justify;&quot;&gt;&lt;b&gt;&amp;nbsp; &amp;nbsp;&amp;nbsp;&lt;/b&gt;&lt;/div&gt;" style="text;html=1;align=center;verticalAlign=middle;resizable=0;points=[];autosize=1;strokeColor=none;fillColor=none;" vertex="1" parent="_6mjk4-27FrQg_kHxcmd-96">
          <mxGeometry y="30" width="330" height="490" as="geometry" />
        </mxCell>
      </root>
    </mxGraphModel>
  </diagram>
</mxfile>
